#!OML:ASF F:\VICON\USERDATA\INSTALL\rory3\rory3.ASF
:FULLY-SPECIFIED
:DEGREES
9
root 0.5777800411822478 18.04899254716714 -20.452686096810424 -2.8738951257146144 -2.6081986542886546 -6.245669754340836
lfemur -26.153287867052722 2.52400096373835 -14.286707975301503
ltibia 62.41478305171459
lfoot -7.661597732366542 -1.2917994618813546
ltoes -4.2274290245817445
rfemur -6.580614080845791 7.0858005730768205 33.67098817356012
rtibia 29.72990379576462
rfoot -16.974590886321035 -8.053316740894761
rtoes 2.6115414548913645
lowerback 10.69968947339353 0.9160255923262139 5.2241308835838
upperback 0.3022899638551764 2.0228465337172734 2.8172880946961074
thorax -5.61776438576358 0.8920610985363678 -0.2946821128766389
lowerneck -15.507017460270742 -3.1419448344738297 -1.7760532112730978
upperneck 21.462195945150008 -4.053335194387617 0.5176861492920561
head 9.372043284303595 -1.9773628308263018 -0.0350450200480496
lclavicle -2.7971981668178528e-15 -4.1600762517603413e-16
lhumerus -33.77039400695602 -1.2597562911257503 85.25738788579824
lradius 27.34419566400367
lwrist 6.27299418487452
lhand -26.39700359177413 21.042707252179884
lfingers 7.1250199999999975
lthumb 0.16230340820540523 51.02230722319695
rclavicle -2.7971981668178528e-15 -4.1600762517603413e-16
rhumerus -26.319805047785884 -12.51510919029883 -80.3116958839683
rradius 26.921693482503482
rwrist 2.4297293989937616
rhand -19.143886549462323 21.762102701679765
rfingers 7.1250199999999975
rthumb 7.166223451510646 -8.096597029107999
10
root 0.5966295918378633 17.96899701881486 -19.634586460374365 -2.3271494448446424 -3.107587095317148 -7.048357773447233
lfemur -28.690386154118784 1.784803786657521 -13.231509498573057
ltibia 52.44528854612054
lfoot -8.443586817940211 3.040824506949039
ltoes 0.5702001604100251
rfemur -3.787795970841863 6.757851750524976 34.58428682219086
rtibia 29.218604086665902
rfoot -18.783388987875455 -7.486577801738052
rtoes 4.795378093780233
lowerback 10.83018782137596 1.2466066110543332 6.400638187446258
upperback 0.6175826971525094 2.589414343871531 2.7098891949634716
thorax -5.278692362274967 1.1518449262499617 -1.1468115926226732
lowerneck -17.10929530722518 -3.2146628986818206 -1.6494348018646185
upperneck 21.47229583135917 -4.121224016473542 0.3741227039184195
head 9.667675457968649 -2.004611597822542 -0.1420467807186949
lclavicle -2.7971981998375105e-15 -4.1600762228973303e-16
lhumerus -33.77519399938434 -0.8360350909325118 85.15008849538272
lradius 26.58939728104648
lwrist 5.372537139102021
lhand -27.027100410531244 23.670999688583706
lfingers 7.1250199999999975
lthumb -0.4462864102393552 53.650299663403764
rclavicle -2.7971981998375105e-15 -4.1600762228973303e-16
rhumerus -24.173510911650602 -9.95488345786943 -81.57379163511666
rradius 29.0669869239019
rwrist -0.0005718720208855999
rhand -19.514983413586087 22.40439997203535
rfingers 7.1250199999999975
rthumb 6.808076587619635 -7.466179716040044
11
root 0.6200710330298498 17.915999981281477 -18.785086837892365 -1.3886368588179663 -3.5472657227454283 -7.985235461396995
lfemur -29.66178549827396 0.1709639497484563 -11.48301202268255
ltibia 39.59389562880353
lfoot -10.08769489538688 6.987019013703239
ltoes -4.436498727599281
rfemur -0.4918112013481082 6.916541180775786 35.65448523866368
rtibia 26.946905379137036
rfoot -19.634788094279365 -7.8031572091528
rtoes 4.158619073806757
lowerback 10.142296529597292 1.4248855425748572 7.434535818119539
upperback 0.2986100603390628 2.911583098654522 2.846427796169193
thorax -5.167934967791072 1.2845538165514865 -1.6047397008641031
lowerneck -16.092009372190073 -3.0960560560565487 -1.7799631621559535
upperneck 20.980701369931147 -3.9029778031836133 0.25420400249950337
head 9.305015058756416 -1.9345947660766083 -0.11081863855312998
lclavicle -2.797198203795788e-15 -4.1600763908271664e-16
lhumerus -35.272991636708106 1.2010990638181276 84.53549198700082
lradius 25.850398864240216
lwrist 4.742019207710864
lhand -26.949400802822264 23.26960084371345
lfingers 7.1250199999999975
lthumb -0.37126480243354276 53.24900081779684
rclavicle -2.797198203795788e-15 -4.1600763908271664e-16
rhumerus -23.290413324351036 -7.672697261983499 -82.07698994109705
rradius 30.21178342402446
rwrist -1.1024818471711235
rhand -19.57078294206388 23.26989629383631
rfingers 7.1250199999999975
rthumb 6.754167059677815 -6.602353397795875
12
root 0.6557551823744463 17.82650498393736 -17.906787228209218 -0.5452295214878005 -5.169980657016756 -8.81624341061476
lfemur -28.345586386912057 -1.8992721442295213 -8.945245686170873
ltibia 24.689003843214614
lfoot -8.135397178324682 10.411184247141124
ltoes 0.97361058736753
rfemur 3.0997993680855522 7.355679604119038 36.358484196986296
rtibia 24.882606553609097
rfoot -20.63758704177978 -7.193308350690858
rtoes 1.2621035317916007
lowerback 9.910909458795336 2.1424112422266477 8.37545366186951
upperback 0.11456888573942287 3.9522090765227977 2.7277690117904667
thorax -5.0802670301384625 1.7702097555450593 -2.37797650652569
lowerneck -15.96671110456017 -3.1571644293204413 -1.5475460817996212
upperneck 20.908702181113373 -4.0681649370821855 0.33297014955306947
head 9.254766389000398 -1.9848224932773828 -0.14020683126195224
lclavicle -2.7971981049951853e-15 -4.160076455114001e-16
lhumerus -36.21249015471162 2.4900366308480937 83.73499653473966
lradius 24.984500719297674
lwrist 4.282680714712681
lhand -26.888101112313123 19.553611537440734
lfingers 7.1250199999999975
lthumb -0.31204811200357874 49.53311150707974
rclavicle -2.7971981049951853e-15 -4.160076455114001e-16
rhumerus -22.17511637144061 -6.6034590442675665 -82.72258776768876
rradius 30.895081335042757
rwrist -1.2666414403364419
rhand -20.635573944270796 21.802802528713038
rfingers 7.1250199999999975
rthumb 5.7261960610943134 -8.09979701546918
13
root 0.7135908036619181 17.780207571903482 -16.98318763865739 0.331151555359515 -6.279227194213841 -9.373042036533146
lfemur -26.061587928964418 -7.796409623658603 -5.09486124453853
ltibia 11.267811239926708
lfoot -6.151449498272672 14.722778245245985
ltoes -6.423645904866668
rfemur 6.924826779557941 7.199390165251433 36.53368393775067
rtibia 22.159808102731116
rfoot -19.912887802396476 -6.875918944792304
rtoes -1.7246918712751405
lowerback 9.267167608115706 2.587608574024586 9.174991829611564
upperback -0.07265070552488267 4.562506717656538 2.5943803783143364
thorax -4.785693959832706 2.0577273513516534 -2.997663946518998
lowerneck -16.49360381975726 -2.952709872005182 -1.2806694343273786
upperneck 21.21749870204294 -3.848658745653676 0.3268162161930632
head 9.451621177620687 -1.8573982592101976 -0.17014300891767278
lclavicle -2.7971982489979645e-15 -4.160076495783809e-16
lhumerus -37.298788441148226 3.9851638086791095 82.96850088932034
lradius 24.209502379615866
lwrist 3.9941116614526004
lhand -26.991600589763305 19.358512098890195
lfingers 7.1250199999999975
lthumb -0.4119325898325298 49.33781206888629
rclavicle -2.7971982489979645e-15 -4.160076495783809e-16
rhumerus -21.47331828881482 -6.590329066153577 -83.07088659513903
rradius 30.60868221062355
rwrist -0.38058263624495847
rhand -18.42299264122513 25.024188838417974
rfingers 7.1250199999999975
rthumb 7.86210735801104 -4.809591038814817
14
root 0.7974928035668936 17.728410467295383 -16.00308807421404 0.963745558053005 -6.926955172161723 -9.049092835983126
lfemur -24.887288721798033 -6.684333870563298 -5.963089991174224
ltibia 7.178933493396382
lfoot -6.3524292632550825 13.339580170707833
ltoes -4.038999292245236
rfemur 9.319875158746294 7.579848799275151 35.65178524265875
rtibia 22.725407780936095
rfoot -19.706388019130838 -5.091122285641916
rtoes -3.3125494274267333
lowerback 8.451857929364456 2.779417424456218 9.071442066910876
upperback -0.3165528106227178 4.723636094874112 2.498971355749241
thorax -4.565619136990386 2.143516633990252 -3.014053878810123
lowerneck -16.299406504723528 -2.9000112748687528 -1.5728957633547056
upperneck 21.423996375527246 -3.689531506612089 0.27295979939587733
head 9.49192011077825 -1.8136102406133048 -0.11866442303009125
lclavicle -2.797198154069773e-15 -4.160076078582145e-16
lhumerus -38.43698664571619 6.126799766174462 82.16420545864743
lradius 23.02410491915289
lwrist 2.7688856811849103
lhand -26.51870297733633 20.31340935092459
lfingers 7.1250199999999975
lthumb 0.044805822453371946 50.2931093208382
rclavicle -2.797198154069773e-15 -4.160076078582145e-16
rhumerus -21.418218439352458 -6.8616786138484045 -83.09008653050236
rradius 30.00798404708091
rwrist 0.5648620206713302
rhand -18.479692162097717 25.11058847123555
rfingers 7.1250199999999975
rthumb 7.8073578374245995 -4.725311398027149
15
root 0.8948904817555935 17.737709947466332 -14.960988537323614 0.37134923780965634 -7.2519141577173425 -8.461584285851442
lfemur -25.492888312924634 -4.5320420899476765 -8.595526191021621
ltibia 14.152009650381991
lfoot -2.745013481620861 10.027184781682298
ltoes 0.7358439251139024
rfemur 12.356383103836938 8.211816530295398 34.72198661844233
rtibia 24.6160067052897
rfoot -16.656191220501185 -4.017594295112037
rtoes -9.587219770173059
lowerback 8.421198317493639 2.9253265499787613 8.729022851614314
upperback -0.17076263311503148 4.859815568525739 2.310203289617676
thorax -4.388093313202684 2.2290659186356794 -3.0294638151497497
lowerneck -16.961597349292727 -2.8990912993589713 -1.214110270449412
upperneck 21.761892568603994 -3.713041098705771 -0.0020930120997398882
head 9.72058405730777 -1.8223098469570584 -0.2903117078936329
lclavicle -2.797198141161913e-15 -4.160075922459766e-16
lhumerus -38.91808588681409 7.985706257343696 81.16051116079043
lradius 21.17180888742051
lwrist 1.8507286934825364
lhand -26.934000880573638 19.79571084073691
lfingers 7.1250199999999975
lthumb -0.35632888051480416 49.77521081064674
rclavicle -2.797198141161913e-15 -4.160075922459766e-16
rhumerus -22.222116243032804 -8.55514579105406 -82.8357873866017
rradius 29.53318549863735
rwrist 1.4173519079562826
rhand -20.248477215350523 22.650698925310426
rfingers 7.1250199999999975
rthumb 6.099952788297726 -7.241500673655431
16
root 0.9804284426617655 17.896201088014287 -13.864089024786404 -0.7171051637207908 -6.110507720915777 -5.163222425631465
lfemur -23.07928994247702 -4.074273838118282 -13.807808666634681
ltibia 16.11430856891623
lfoot 2.3741905321894814 1.3576868499376664
ltoes -2.060532102647967
rfemur 12.402583072571867 6.729831851125973 30.585592738888863
rtibia 30.892703134195987
rfoot -9.942318267126527 -1.9811181070648702
rtoes -11.098377444372348
lowerback 8.361619071725107 2.702697884259591 5.488470277811658
upperback -0.37549526520255616 4.220708038745328 1.556021015973741
thorax -4.804843509348476 1.965878119385755 -1.9653382111863444
lowerneck -16.183008114044192 -2.9280605281833036 -1.5386061941032692
upperneck 22.092088848432173 -3.752800408856551 0.28397968006329277
head 9.705524455983877 -1.8373791650720428 -0.1332120234087342
lclavicle -2.7971982318858648e-15 -4.160076091701659e-16
lhumerus -39.55388488388343 9.582673242944125 80.08661726174827
lradius 18.88681378268126
lwrist 0.13216133177364053
lhand -26.88350113553756 19.08011290005641
lfingers 7.1250199999999975
lthumb -0.30759613527739854 49.059612869165775
rclavicle -2.7971982318858648e-15 -4.160076091701659e-16
rhumerus -24.161110945528403 -11.408511034857181 -81.98769024172493
rradius 28.008890158720504
rwrist 2.297149727564305
rhand -19.829880752612155 23.567095030796732
rfingers 7.1250199999999975
rthumb 6.504089249481342 -6.313054630830106
